<mxfile host="app.diagrams.net" agent="Mozilla/5.0 (Windows NT 10.0; Win64; x64) AppleWebKit/537.36 (KHTML, like Gecko) Chrome/131.0.0.0 Safari/537.36 Edg/131.0.0.0" version="24.9.0">
  <diagram name="Страница — 1" id="jVte7GCmEldPyO46GJ4Z">
    <mxGraphModel dx="1188" dy="653" grid="1" gridSize="10" guides="1" tooltips="1" connect="1" arrows="1" fold="1" page="1" pageScale="1" pageWidth="827" pageHeight="1169" math="0" shadow="0">
      <root>
        <mxCell id="0" />
        <mxCell id="1" parent="0" />
        <mxCell id="p-ONJ2CzTZ3crAPE79eb-1" value="Начало" style="rounded=1;whiteSpace=wrap;html=1;" vertex="1" parent="1">
          <mxGeometry x="382" y="20" width="64" height="40" as="geometry" />
        </mxCell>
        <mxCell id="p-ONJ2CzTZ3crAPE79eb-4" value="&lt;font&gt;Выбор&lt;br&gt;действи&lt;/font&gt;&lt;span style=&quot;background-color: initial;&quot;&gt;я&lt;/span&gt;" style="rhombus;whiteSpace=wrap;html=1;" vertex="1" parent="1">
          <mxGeometry x="374" y="100" width="80" height="80" as="geometry" />
        </mxCell>
        <mxCell id="p-ONJ2CzTZ3crAPE79eb-6" value="Проверка формата файла" style="rounded=0;whiteSpace=wrap;html=1;" vertex="1" parent="1">
          <mxGeometry x="120" y="110" width="120" height="60" as="geometry" />
        </mxCell>
        <mxCell id="p-ONJ2CzTZ3crAPE79eb-7" value="Файл формата PDF?" style="rhombus;whiteSpace=wrap;html=1;" vertex="1" parent="1">
          <mxGeometry x="140" y="220" width="80" height="80" as="geometry" />
        </mxCell>
        <mxCell id="p-ONJ2CzTZ3crAPE79eb-8" value="&lt;br&gt;Сохранить&amp;nbsp;&lt;span style=&quot;background-color: initial;&quot;&gt;в базу данных&lt;/span&gt;&lt;div&gt;&lt;br&gt;&lt;/div&gt;" style="rounded=0;whiteSpace=wrap;html=1;" vertex="1" parent="1">
          <mxGeometry x="135" y="350" width="90" height="40" as="geometry" />
        </mxCell>
        <mxCell id="p-ONJ2CzTZ3crAPE79eb-9" value="Получение данных из базы SQLite" style="rounded=0;whiteSpace=wrap;html=1;" vertex="1" parent="1">
          <mxGeometry x="660" y="20" width="120" height="60" as="geometry" />
        </mxCell>
        <mxCell id="p-ONJ2CzTZ3crAPE79eb-11" value="&lt;font style=&quot;font-size: 8px;&quot;&gt;Есть прочитанные или запланированные?&lt;/font&gt;" style="rhombus;whiteSpace=wrap;html=1;" vertex="1" parent="1">
          <mxGeometry x="680" y="120" width="80" height="80" as="geometry" />
        </mxCell>
        <mxCell id="p-ONJ2CzTZ3crAPE79eb-13" value="Вывести в интерфейс" style="rounded=0;whiteSpace=wrap;html=1;" vertex="1" parent="1">
          <mxGeometry x="680" y="240" width="80" height="40" as="geometry" />
        </mxCell>
        <mxCell id="p-ONJ2CzTZ3crAPE79eb-15" value="&lt;span style=&quot;text-align: left;&quot;&gt;Книга загружена?&lt;/span&gt;" style="rhombus;whiteSpace=wrap;html=1;" vertex="1" parent="1">
          <mxGeometry x="540" y="200" width="80" height="80" as="geometry" />
        </mxCell>
        <mxCell id="p-ONJ2CzTZ3crAPE79eb-16" value="&lt;br&gt;Обработать с помощью ИИ&lt;div&gt;&lt;br/&gt;&lt;/div&gt;" style="rounded=0;whiteSpace=wrap;html=1;" vertex="1" parent="1">
          <mxGeometry x="535" y="320" width="90" height="40" as="geometry" />
        </mxCell>
        <mxCell id="p-ONJ2CzTZ3crAPE79eb-17" value="&lt;br&gt;Сохранить аннотацию в базу данных&lt;div&gt;&lt;br&gt;&lt;/div&gt;" style="rounded=0;whiteSpace=wrap;html=1;" vertex="1" parent="1">
          <mxGeometry x="520" y="390" width="120" height="50" as="geometry" />
        </mxCell>
        <mxCell id="p-ONJ2CzTZ3crAPE79eb-18" value="&lt;br&gt;Пользователь перемещает книгу между категориями&lt;br&gt;&lt;div&gt;&lt;br&gt;&lt;/div&gt;" style="rounded=0;whiteSpace=wrap;html=1;" vertex="1" parent="1">
          <mxGeometry x="353" y="300" width="120" height="60" as="geometry" />
        </mxCell>
        <mxCell id="p-ONJ2CzTZ3crAPE79eb-20" value="&lt;span style=&quot;text-align: left;&quot;&gt;Категория изменена?&lt;/span&gt;" style="rhombus;whiteSpace=wrap;html=1;" vertex="1" parent="1">
          <mxGeometry x="366.5" y="380" width="93" height="90" as="geometry" />
        </mxCell>
        <mxCell id="p-ONJ2CzTZ3crAPE79eb-21" value="Обновить базу данных" style="rounded=0;whiteSpace=wrap;html=1;" vertex="1" parent="1">
          <mxGeometry x="368" y="520" width="90" height="40" as="geometry" />
        </mxCell>
        <mxCell id="p-ONJ2CzTZ3crAPE79eb-23" value="Конец" style="rounded=1;whiteSpace=wrap;html=1;" vertex="1" parent="1">
          <mxGeometry x="381" y="600" width="64" height="40" as="geometry" />
        </mxCell>
        <mxCell id="p-ONJ2CzTZ3crAPE79eb-24" value="" style="endArrow=classic;html=1;rounded=0;exitX=0.5;exitY=1;exitDx=0;exitDy=0;entryX=0.5;entryY=0;entryDx=0;entryDy=0;" edge="1" parent="1" source="p-ONJ2CzTZ3crAPE79eb-1" target="p-ONJ2CzTZ3crAPE79eb-4">
          <mxGeometry width="50" height="50" relative="1" as="geometry">
            <mxPoint x="520" y="270" as="sourcePoint" />
            <mxPoint x="490" y="90" as="targetPoint" />
          </mxGeometry>
        </mxCell>
        <mxCell id="p-ONJ2CzTZ3crAPE79eb-26" value="" style="endArrow=classic;html=1;rounded=0;exitX=0;exitY=0.5;exitDx=0;exitDy=0;entryX=1;entryY=0.5;entryDx=0;entryDy=0;" edge="1" parent="1" source="p-ONJ2CzTZ3crAPE79eb-4" target="p-ONJ2CzTZ3crAPE79eb-6">
          <mxGeometry width="50" height="50" relative="1" as="geometry">
            <mxPoint x="424" y="70" as="sourcePoint" />
            <mxPoint x="424" y="110" as="targetPoint" />
          </mxGeometry>
        </mxCell>
        <mxCell id="p-ONJ2CzTZ3crAPE79eb-27" value="" style="endArrow=classic;html=1;rounded=0;exitX=1;exitY=0.5;exitDx=0;exitDy=0;entryX=0;entryY=0.5;entryDx=0;entryDy=0;" edge="1" parent="1" source="p-ONJ2CzTZ3crAPE79eb-4" target="p-ONJ2CzTZ3crAPE79eb-9">
          <mxGeometry width="50" height="50" relative="1" as="geometry">
            <mxPoint x="384" y="150" as="sourcePoint" />
            <mxPoint x="250" y="150" as="targetPoint" />
          </mxGeometry>
        </mxCell>
        <mxCell id="p-ONJ2CzTZ3crAPE79eb-28" value="" style="endArrow=classic;html=1;rounded=0;exitX=0.5;exitY=1;exitDx=0;exitDy=0;entryX=0.5;entryY=0;entryDx=0;entryDy=0;" edge="1" parent="1" source="p-ONJ2CzTZ3crAPE79eb-4" target="p-ONJ2CzTZ3crAPE79eb-18">
          <mxGeometry width="50" height="50" relative="1" as="geometry">
            <mxPoint x="394" y="160" as="sourcePoint" />
            <mxPoint x="260" y="160" as="targetPoint" />
          </mxGeometry>
        </mxCell>
        <mxCell id="p-ONJ2CzTZ3crAPE79eb-29" value="" style="endArrow=classic;html=1;rounded=0;entryX=0.5;entryY=0;entryDx=0;entryDy=0;exitX=1;exitY=0.5;exitDx=0;exitDy=0;" edge="1" parent="1" source="p-ONJ2CzTZ3crAPE79eb-4" target="p-ONJ2CzTZ3crAPE79eb-15">
          <mxGeometry width="50" height="50" relative="1" as="geometry">
            <mxPoint x="470" y="160" as="sourcePoint" />
            <mxPoint x="270" y="170" as="targetPoint" />
          </mxGeometry>
        </mxCell>
        <mxCell id="p-ONJ2CzTZ3crAPE79eb-30" value="&lt;font style=&quot;font-size: 11px;&quot;&gt;Загрузка книги в PDF&lt;/font&gt;" style="text;whiteSpace=wrap;html=1;" vertex="1" parent="1">
          <mxGeometry x="250" y="120" width="150" height="40" as="geometry" />
        </mxCell>
        <mxCell id="p-ONJ2CzTZ3crAPE79eb-34" value="Просмотр списка книг" style="text;whiteSpace=wrap;html=1;rotation=336;" vertex="1" parent="1">
          <mxGeometry x="480" y="70" width="160" height="40" as="geometry" />
        </mxCell>
        <mxCell id="p-ONJ2CzTZ3crAPE79eb-36" value="Получение аннотаци&lt;span style=&quot;background-color: initial;&quot;&gt;и&lt;/span&gt;" style="text;whiteSpace=wrap;html=1;direction=west;rotation=25;fontSize=11;" vertex="1" parent="1">
          <mxGeometry x="462" y="163" width="179.39" height="25" as="geometry" />
        </mxCell>
        <mxCell id="p-ONJ2CzTZ3crAPE79eb-37" value="Разделение на категории" style="text;whiteSpace=wrap;html=1;rotation=90;fontSize=9;" vertex="1" parent="1">
          <mxGeometry x="342" y="251" width="160" height="20" as="geometry" />
        </mxCell>
        <mxCell id="p-ONJ2CzTZ3crAPE79eb-38" value="" style="endArrow=classic;html=1;rounded=0;exitX=0.5;exitY=1;exitDx=0;exitDy=0;" edge="1" parent="1" source="p-ONJ2CzTZ3crAPE79eb-18" target="p-ONJ2CzTZ3crAPE79eb-20">
          <mxGeometry width="50" height="50" relative="1" as="geometry">
            <mxPoint x="424" y="70" as="sourcePoint" />
            <mxPoint x="424" y="110" as="targetPoint" />
          </mxGeometry>
        </mxCell>
        <mxCell id="p-ONJ2CzTZ3crAPE79eb-39" value="" style="endArrow=classic;html=1;rounded=0;exitX=0.5;exitY=1;exitDx=0;exitDy=0;entryX=0.5;entryY=0;entryDx=0;entryDy=0;" edge="1" parent="1" source="p-ONJ2CzTZ3crAPE79eb-20" target="p-ONJ2CzTZ3crAPE79eb-21">
          <mxGeometry width="50" height="50" relative="1" as="geometry">
            <mxPoint x="423" y="370" as="sourcePoint" />
            <mxPoint x="423" y="390" as="targetPoint" />
          </mxGeometry>
        </mxCell>
        <mxCell id="p-ONJ2CzTZ3crAPE79eb-40" value="" style="endArrow=classic;html=1;rounded=0;exitX=0.5;exitY=1;exitDx=0;exitDy=0;entryX=0.5;entryY=0;entryDx=0;entryDy=0;" edge="1" parent="1" source="p-ONJ2CzTZ3crAPE79eb-21" target="p-ONJ2CzTZ3crAPE79eb-23">
          <mxGeometry width="50" height="50" relative="1" as="geometry">
            <mxPoint x="423" y="480" as="sourcePoint" />
            <mxPoint x="423" y="500" as="targetPoint" />
          </mxGeometry>
        </mxCell>
        <mxCell id="p-ONJ2CzTZ3crAPE79eb-41" value="Да" style="text;html=1;align=center;verticalAlign=middle;resizable=0;points=[];autosize=1;strokeColor=none;fillColor=none;" vertex="1" parent="1">
          <mxGeometry x="406" y="478" width="40" height="30" as="geometry" />
        </mxCell>
        <mxCell id="p-ONJ2CzTZ3crAPE79eb-42" value="" style="endArrow=classic;html=1;rounded=0;exitX=0.5;exitY=1;exitDx=0;exitDy=0;entryX=0.5;entryY=0;entryDx=0;entryDy=0;" edge="1" parent="1" source="p-ONJ2CzTZ3crAPE79eb-6" target="p-ONJ2CzTZ3crAPE79eb-7">
          <mxGeometry width="50" height="50" relative="1" as="geometry">
            <mxPoint x="424" y="70" as="sourcePoint" />
            <mxPoint x="424" y="110" as="targetPoint" />
          </mxGeometry>
        </mxCell>
        <mxCell id="p-ONJ2CzTZ3crAPE79eb-43" value="" style="endArrow=classic;html=1;rounded=0;exitX=0.5;exitY=1;exitDx=0;exitDy=0;entryX=0.5;entryY=0;entryDx=0;entryDy=0;" edge="1" parent="1" source="p-ONJ2CzTZ3crAPE79eb-7" target="p-ONJ2CzTZ3crAPE79eb-8">
          <mxGeometry width="50" height="50" relative="1" as="geometry">
            <mxPoint x="190" y="180" as="sourcePoint" />
            <mxPoint x="190" y="230" as="targetPoint" />
          </mxGeometry>
        </mxCell>
        <mxCell id="p-ONJ2CzTZ3crAPE79eb-44" value="" style="endArrow=classic;html=1;rounded=0;exitX=0.5;exitY=1;exitDx=0;exitDy=0;entryX=0.5;entryY=0;entryDx=0;entryDy=0;" edge="1" parent="1" source="p-ONJ2CzTZ3crAPE79eb-15" target="p-ONJ2CzTZ3crAPE79eb-16">
          <mxGeometry width="50" height="50" relative="1" as="geometry">
            <mxPoint x="200" y="190" as="sourcePoint" />
            <mxPoint x="200" y="240" as="targetPoint" />
          </mxGeometry>
        </mxCell>
        <mxCell id="p-ONJ2CzTZ3crAPE79eb-45" value="" style="endArrow=classic;html=1;rounded=0;exitX=0.5;exitY=1;exitDx=0;exitDy=0;entryX=0.5;entryY=0;entryDx=0;entryDy=0;" edge="1" parent="1" source="p-ONJ2CzTZ3crAPE79eb-16" target="p-ONJ2CzTZ3crAPE79eb-17">
          <mxGeometry width="50" height="50" relative="1" as="geometry">
            <mxPoint x="590" y="290" as="sourcePoint" />
            <mxPoint x="590" y="330" as="targetPoint" />
          </mxGeometry>
        </mxCell>
        <mxCell id="p-ONJ2CzTZ3crAPE79eb-46" value="" style="endArrow=classic;html=1;rounded=0;exitX=0.5;exitY=1;exitDx=0;exitDy=0;entryX=0.5;entryY=0;entryDx=0;entryDy=0;" edge="1" parent="1" source="p-ONJ2CzTZ3crAPE79eb-11" target="p-ONJ2CzTZ3crAPE79eb-13">
          <mxGeometry width="50" height="50" relative="1" as="geometry">
            <mxPoint x="600" y="300" as="sourcePoint" />
            <mxPoint x="600" y="340" as="targetPoint" />
          </mxGeometry>
        </mxCell>
        <mxCell id="p-ONJ2CzTZ3crAPE79eb-47" value="" style="endArrow=classic;html=1;rounded=0;exitX=0.5;exitY=1;exitDx=0;exitDy=0;entryX=0.5;entryY=0;entryDx=0;entryDy=0;" edge="1" parent="1" source="p-ONJ2CzTZ3crAPE79eb-9" target="p-ONJ2CzTZ3crAPE79eb-11">
          <mxGeometry width="50" height="50" relative="1" as="geometry">
            <mxPoint x="610" y="310" as="sourcePoint" />
            <mxPoint x="610" y="350" as="targetPoint" />
          </mxGeometry>
        </mxCell>
        <mxCell id="p-ONJ2CzTZ3crAPE79eb-49" value="Да" style="text;html=1;align=center;verticalAlign=middle;resizable=0;points=[];autosize=1;strokeColor=none;fillColor=none;" vertex="1" parent="1">
          <mxGeometry x="715" y="200" width="40" height="30" as="geometry" />
        </mxCell>
        <mxCell id="p-ONJ2CzTZ3crAPE79eb-50" value="Да" style="text;html=1;align=center;verticalAlign=middle;resizable=0;points=[];autosize=1;strokeColor=none;fillColor=none;" vertex="1" parent="1">
          <mxGeometry x="174" y="310" width="40" height="30" as="geometry" />
        </mxCell>
        <mxCell id="p-ONJ2CzTZ3crAPE79eb-51" value="" style="endArrow=classic;html=1;rounded=0;exitX=0.5;exitY=1;exitDx=0;exitDy=0;entryX=0;entryY=0;entryDx=0;entryDy=0;" edge="1" parent="1" source="p-ONJ2CzTZ3crAPE79eb-8" target="p-ONJ2CzTZ3crAPE79eb-23">
          <mxGeometry width="50" height="50" relative="1" as="geometry">
            <mxPoint x="423" y="570" as="sourcePoint" />
            <mxPoint x="423" y="610" as="targetPoint" />
          </mxGeometry>
        </mxCell>
        <mxCell id="p-ONJ2CzTZ3crAPE79eb-52" value="" style="endArrow=classic;html=1;rounded=0;entryX=1;entryY=0;entryDx=0;entryDy=0;exitX=0.5;exitY=1;exitDx=0;exitDy=0;" edge="1" parent="1" source="p-ONJ2CzTZ3crAPE79eb-17" target="p-ONJ2CzTZ3crAPE79eb-23">
          <mxGeometry width="50" height="50" relative="1" as="geometry">
            <mxPoint x="590" y="470" as="sourcePoint" />
            <mxPoint x="391" y="610" as="targetPoint" />
          </mxGeometry>
        </mxCell>
        <mxCell id="p-ONJ2CzTZ3crAPE79eb-54" value="" style="endArrow=none;html=1;rounded=0;entryX=0.5;entryY=1;entryDx=0;entryDy=0;" edge="1" parent="1" target="p-ONJ2CzTZ3crAPE79eb-13">
          <mxGeometry width="50" height="50" relative="1" as="geometry">
            <mxPoint x="620" y="540" as="sourcePoint" />
            <mxPoint x="520" y="360" as="targetPoint" />
          </mxGeometry>
        </mxCell>
        <mxCell id="p-ONJ2CzTZ3crAPE79eb-55" value="" style="endArrow=classic;html=1;rounded=0;entryX=1;entryY=0.5;entryDx=0;entryDy=0;" edge="1" parent="1" target="p-ONJ2CzTZ3crAPE79eb-23">
          <mxGeometry width="50" height="50" relative="1" as="geometry">
            <mxPoint x="620" y="540" as="sourcePoint" />
            <mxPoint x="520" y="360" as="targetPoint" />
          </mxGeometry>
        </mxCell>
      </root>
    </mxGraphModel>
  </diagram>
</mxfile>
